<svg xmlns="http://www.w3.org/2000/svg" viewBox="0 0 100 100" fill="none">
  <defs>
    <linearGradient id="bg" x1="0" y1="0" x2="100" y2="100" gradientUnits="userSpaceOnUse">
      <stop stop-color="#FF9944"/>
      <stop offset="0.4" stop-color="#FF5500"/>
      <stop offset="1" stop-color="#FF3366"/>
    </linearGradient>
    <linearGradient id="bladeA" x1="50" y1="18" x2="50" y2="32" gradientUnits="userSpaceOnUse">
      <stop stop-color="#FFF8DC"/>
      <stop offset="1" stop-color="#FFB020"/>
    </linearGradient>
    <linearGradient id="bladeB" x1="50" y1="18" x2="50" y2="32" gradientUnits="userSpaceOnUse">
      <stop stop-color="#FFE0C2"/>
      <stop offset="1" stop-color="#FF5500"/>
    </linearGradient>
    <linearGradient id="bladeC" x1="50" y1="18" x2="50" y2="32" gradientUnits="userSpaceOnUse">
      <stop stop-color="#FFD6E8"/>
      <stop offset="1" stop-color="#FF6688"/>
    </linearGradient>
    <radialGradient id="shine" cx="0" cy="0" r="1" gradientUnits="userSpaceOnUse" gradientTransform="translate(26 20) rotate(35) scale(58 42)">
      <stop stop-color="#FFF" stop-opacity="0.55"/>
      <stop offset="1" stop-color="#FFF" stop-opacity="0"/>
    </radialGradient>
    <linearGradient id="legL" x1="50" y1="52" x2="22" y2="82" gradientUnits="userSpaceOnUse">
      <stop stop-color="#C4B5FD"/>
      <stop offset="1" stop-color="#FF8833"/>
    </linearGradient>
    <linearGradient id="legR" x1="50" y1="52" x2="78" y2="82" gradientUnits="userSpaceOnUse">
      <stop stop-color="#F0ABFC"/>
      <stop offset="1" stop-color="#FF5577"/>
    </linearGradient>
    <linearGradient id="legC" x1="50" y1="52" x2="50" y2="86" gradientUnits="userSpaceOnUse">
      <stop stop-color="#FFD080"/>
      <stop offset="1" stop-color="#FF4400"/>
    </linearGradient>
  </defs>
  <rect width="100" height="100" rx="24" fill="url(#bg)"/>
  <rect width="100" height="100" rx="24" fill="url(#shine)"/>
  <circle cx="50" cy="28" r="14.5" stroke="#FFF" stroke-width="2" fill="#312E81" opacity="0.55"/>
  <g transform="translate(50 28)">
    <path d="M0 -10 C3.5 -9 6 -6 5.5 -2 L0 2.5 L-5.5 -2 C-6 -6 -3.5 -9 0 -10 Z" fill="url(#bladeA)"/>
    <path d="M0 -10 C3.5 -9 6 -6 5.5 -2 L0 2.5 L-5.5 -2 C-6 -6 -3.5 -9 0 -10 Z" fill="url(#bladeB)" transform="rotate(120)"/>
    <path d="M0 -10 C3.5 -9 6 -6 5.5 -2 L0 2.5 L-5.5 -2 C-6 -6 -3.5 -9 0 -10 Z" fill="url(#bladeC)" transform="rotate(240)"/>
  </g>
  <circle cx="50" cy="28" r="4.5" fill="#FFF" opacity="0.95"/>
  <circle cx="48" cy="26" r="1.5" fill="#FFE566"/>
  <rect x="46.5" y="40" width="7" height="11" rx="2" fill="#E9D5FF"/>
  <rect x="48" y="41" width="2.5" height="8" rx="1" fill="#FFF" opacity="0.6"/>
  <circle cx="50" cy="51" r="3.5" fill="#FFE566"/>
  <path d="M50 54 L22 82" stroke="url(#legL)" stroke-width="5.5" stroke-linecap="round"/>
  <path d="M50 54 L78 82" stroke="url(#legR)" stroke-width="5.5" stroke-linecap="round"/>
  <path d="M50 54 L50 86" stroke="url(#legC)" stroke-width="4.5" stroke-linecap="round"/>
  <circle cx="22" cy="82" r="3.5" fill="#FFB020"/>
  <circle cx="78" cy="82" r="3.5" fill="#FF6688"/>
  <circle cx="50" cy="86" r="3" fill="#FF8833"/>
</svg>
