<svg width="256" height="256" viewBox="0 0 256 256" fill="none" xmlns="http://www.w3.org/2000/svg">
  <defs>
    <radialGradient id="nfTip" cx="0" cy="0" r="1" gradientUnits="userSpaceOnUse" gradientTransform="translate(128 56) rotate(90) scale(60)">
      <stop offset="0" stop-color="#FFECC7"/>
      <stop offset="0.5" stop-color="#FFC060"/>
      <stop offset="1" stop-color="#F07100"/>
    </radialGradient>
    <linearGradient id="nfStem" x1="128" y1="95" x2="128" y2="126" gradientUnits="userSpaceOnUse">
      <stop offset="0" stop-color="#FFB44B"/>
      <stop offset="1" stop-color="#D85B00"/>
    </linearGradient>
    <radialGradient id="nfCore" cx="0" cy="0" r="1" gradientUnits="userSpaceOnUse" gradientTransform="translate(128 128) rotate(90) scale(30)">
      <stop offset="0" stop-color="#FFDDA1"/>
      <stop offset="1" stop-color="#F27A04"/>
    </radialGradient>
    <filter id="nfShadow" x="-20%" y="-20%" width="140%" height="140%">
      <feDropShadow dx="0" dy="2" stdDeviation="2.2" flood-opacity="0.28"/>
    </filter>
    <g id="petal-main">
      <path d="M128 48C143 48 154 59 154 73C154 89 141 101 128 101C115 101 102 89 102 73C102 59 113 48 128 48Z" fill="url(#nfTip)"/>
      <path d="M128 95C133 95 136 99 136 104C136 110 132 114 128 114C124 114 120 110 120 104C120 99 123 95 128 95Z" fill="url(#nfStem)"/>
      <path d="M128 113C130 118 130 124 128 129C126 124 126 118 128 113Z" fill="#DE6500"/>
      <ellipse cx="120" cy="65" rx="6" ry="4" transform="rotate(-28 120 65)" fill="#FFF2D6" opacity="0.55"/>
    </g>
    <g id="petal-diag">
      <path d="M128 54C141 54 151 63 151 76C151 90 139 100 128 100C117 100 105 90 105 76C105 63 115 54 128 54Z" fill="url(#nfTip)"/>
      <path d="M128 96C132 96 135 99 135 104C135 109 132 113 128 113C124 113 121 109 121 104C121 99 124 96 128 96Z" fill="url(#nfStem)"/>
      <path d="M128 112C129.8 116.5 129.8 121.5 128 126C126.2 121.5 126.2 116.5 128 112Z" fill="#DE6500"/>
    </g>
  </defs>
  <g filter="url(#nfShadow)">
    <circle cx="128" cy="128" r="12" fill="url(#nfCore)"/>
    <use href="#petal-main"/>
    <use href="#petal-diag" transform="rotate(45 128 128)"/>
    <use href="#petal-main" transform="rotate(90 128 128)"/>
    <use href="#petal-diag" transform="rotate(135 128 128)"/>
    <use href="#petal-main" transform="rotate(180 128 128)"/>
    <use href="#petal-diag" transform="rotate(225 128 128)"/>
    <use href="#petal-main" transform="rotate(270 128 128)"/>
    <use href="#petal-diag" transform="rotate(315 128 128)"/>
    <circle cx="128" cy="31" r="6.5" fill="url(#nfTip)"/>
    <circle cx="181" cy="43" r="6" fill="url(#nfTip)"/>
    <circle cx="212" cy="86" r="6.5" fill="url(#nfTip)"/>
    <circle cx="225" cy="128" r="5.5" fill="url(#nfTip)"/>
    <circle cx="212" cy="170" r="6.5" fill="url(#nfTip)"/>
    <circle cx="181" cy="213" r="6" fill="url(#nfTip)"/>
    <circle cx="128" cy="225" r="6.5" fill="url(#nfTip)"/>
    <circle cx="75" cy="213" r="6" fill="url(#nfTip)"/>
    <circle cx="44" cy="170" r="6.5" fill="url(#nfTip)"/>
    <circle cx="31" cy="128" r="5.5" fill="url(#nfTip)"/>
    <circle cx="44" cy="86" r="6.5" fill="url(#nfTip)"/>
    <circle cx="75" cy="43" r="6" fill="url(#nfTip)"/>
  </g>
</svg>
