<svg width="256" height="256" viewBox="0 0 256 256" fill="none" xmlns="http://www.w3.org/2000/svg">
  <defs>
    <linearGradient id="tfRing" x1="94" y1="24" x2="162" y2="84" gradientUnits="userSpaceOnUse">
      <stop offset="0" stop-color="#FFE066"/>
      <stop offset="0.45" stop-color="#FF5500"/>
      <stop offset="1" stop-color="#FF3366"/>
    </linearGradient>
    <radialGradient id="tfRingFill" cx="0" cy="0" r="1" gradientUnits="userSpaceOnUse" gradientTransform="translate(128 54) rotate(90) scale(36)">
      <stop offset="0" stop-color="#312E81"/>
      <stop offset="0.55" stop-color="#1E1B4B"/>
      <stop offset="1" stop-color="#FF5500" stop-opacity="0.35"/>
    </radialGradient>
    <linearGradient id="tfBladeA" x1="128" y1="28" x2="128" y2="60" gradientUnits="userSpaceOnUse">
      <stop offset="0" stop-color="#FFF3B0"/>
      <stop offset="0.5" stop-color="#FFB020"/>
      <stop offset="1" stop-color="#FF7700"/>
    </linearGradient>
    <linearGradient id="tfBladeB" x1="128" y1="28" x2="128" y2="60" gradientUnits="userSpaceOnUse">
      <stop offset="0" stop-color="#FFD4A8"/>
      <stop offset="0.45" stop-color="#FF5500"/>
      <stop offset="1" stop-color="#FF2200"/>
    </linearGradient>
    <linearGradient id="tfBladeC" x1="128" y1="28" x2="128" y2="60" gradientUnits="userSpaceOnUse">
      <stop offset="0" stop-color="#FFCCE8"/>
      <stop offset="0.45" stop-color="#FF6688"/>
      <stop offset="1" stop-color="#FF4400"/>
    </linearGradient>
    <radialGradient id="tfIris" cx="0" cy="0" r="1" gradientUnits="userSpaceOnUse" gradientTransform="translate(128 54) rotate(90) scale(14)">
      <stop offset="0" stop-color="#FFFFFF"/>
      <stop offset="0.35" stop-color="#FFE8A3"/>
      <stop offset="0.75" stop-color="#FF8833"/>
      <stop offset="1" stop-color="#FF3300"/>
    </radialGradient>
    <linearGradient id="tfStem" x1="128" y1="86" x2="128" y2="110" gradientUnits="userSpaceOnUse">
      <stop offset="0" stop-color="#A78BFA"/>
      <stop offset="0.5" stop-color="#FF8833"/>
      <stop offset="1" stop-color="#FF5500"/>
    </linearGradient>
    <linearGradient id="tfLegL" x1="128" y1="118" x2="40" y2="210" gradientUnits="userSpaceOnUse">
      <stop offset="0" stop-color="#818CF8"/>
      <stop offset="0.45" stop-color="#FF8833"/>
      <stop offset="1" stop-color="#FF3300"/>
    </linearGradient>
    <linearGradient id="tfLegR" x1="128" y1="118" x2="216" y2="210" gradientUnits="userSpaceOnUse">
      <stop offset="0" stop-color="#C084FC"/>
      <stop offset="0.45" stop-color="#FF6644"/>
      <stop offset="1" stop-color="#FF2255"/>
    </linearGradient>
    <linearGradient id="tfLegC" x1="128" y1="118" x2="128" y2="224" gradientUnits="userSpaceOnUse">
      <stop offset="0" stop-color="#FFB020"/>
      <stop offset="0.5" stop-color="#FF5500"/>
      <stop offset="1" stop-color="#E03000"/>
    </linearGradient>
    <radialGradient id="tfHub" cx="0" cy="0" r="1" gradientUnits="userSpaceOnUse" gradientTransform="translate(128 116) rotate(90) scale(12)">
      <stop offset="0" stop-color="#FFE566"/>
      <stop offset="0.6" stop-color="#FF5500"/>
      <stop offset="1" stop-color="#FF3366"/>
    </radialGradient>
    <filter id="tfGlow" x="-40%" y="-40%" width="180%" height="180%">
      <feDropShadow dx="0" dy="2" stdDeviation="3" flood-color="#FF8833" flood-opacity="0.55"/>
      <feDropShadow dx="0" dy="6" stdDeviation="10" flood-color="#FF4400" flood-opacity="0.28"/>
    </filter>
  </defs>
  <ellipse cx="128" cy="130" rx="88" ry="96" fill="#FF5500" opacity="0.07"/>
  <ellipse cx="128" cy="54" rx="42" ry="38" fill="#FF8833" opacity="0.12"/>
  <g filter="url(#tfGlow)">
    <circle cx="128" cy="54" r="34" stroke="url(#tfRing)" stroke-width="5.5" fill="url(#tfRingFill)"/>
    <g transform="translate(128 54)">
      <path d="M0 -26 C9 -24 16 -16 14 -5 L0 6 L-14 -5 C-16 -16 -9 -24 0 -26 Z" fill="url(#tfBladeA)"/>
      <path d="M0 -26 C9 -24 16 -16 14 -5 L0 6 L-14 -5 C-16 -16 -9 -24 0 -26 Z" fill="url(#tfBladeB)" transform="rotate(120)"/>
      <path d="M0 -26 C9 -24 16 -16 14 -5 L0 6 L-14 -5 C-16 -16 -9 -24 0 -26 Z" fill="url(#tfBladeC)" transform="rotate(240)"/>
    </g>
    <circle cx="128" cy="54" r="11" fill="url(#tfIris)"/>
    <ellipse cx="121" cy="47" rx="9" ry="6" fill="#FFFFFF" opacity="0.45"/>
    <circle cx="133" cy="58" r="2.5" fill="#FFFFFF" opacity="0.6"/>
    <rect x="119" y="86" width="18" height="26" rx="5" fill="url(#tfStem)"/>
    <rect x="122" y="88" width="5" height="20" rx="2.5" fill="#FFFFFF" opacity="0.35"/>
    <circle cx="128" cy="116" r="11" fill="url(#tfHub)"/>
    <circle cx="128" cy="116" r="5.5" fill="#FFFFFF" opacity="0.5"/>
    <path d="M128 124 Q96 160 40 208" stroke="url(#tfLegL)" stroke-width="16" stroke-linecap="round" fill="none"/>
    <path d="M128 124 Q160 160 216 208" stroke="url(#tfLegR)" stroke-width="16" stroke-linecap="round" fill="none"/>
    <path d="M128 124 L128 222" stroke="url(#tfLegC)" stroke-width="12" stroke-linecap="round" fill="none"/>
    <path d="M128 130 Q100 164 50 204" stroke="#FFFFFF" stroke-width="3.5" stroke-linecap="round" fill="none" opacity="0.28"/>
    <path d="M128 130 Q156 164 206 204" stroke="#FFFFFF" stroke-width="3.5" stroke-linecap="round" fill="none" opacity="0.28"/>
    <path d="M128 134 L128 214" stroke="#FFFFFF" stroke-width="2.5" stroke-linecap="round" fill="none" opacity="0.22"/>
    <circle cx="40" cy="208" r="11" fill="#4C1D95"/>
    <circle cx="216" cy="208" r="11" fill="#9D174D"/>
    <circle cx="128" cy="222" r="10" fill="#C2410C"/>
    <circle cx="40" cy="208" r="6" fill="#FFB020"/>
    <circle cx="216" cy="208" r="6" fill="#FF6688"/>
    <circle cx="128" cy="222" r="5.5" fill="#FF8833"/>
    <circle cx="40" cy="208" r="2.5" fill="#FFFFFF" opacity="0.7"/>
    <circle cx="216" cy="208" r="2.5" fill="#FFFFFF" opacity="0.7"/>
    <circle cx="128" cy="222" r="2" fill="#FFFFFF" opacity="0.65"/>
  </g>
</svg>
